<?xml version="1.0" encoding="UTF-8" standalone="no"?>
<svg
   xmlns:dc="http://purl.org/dc/elements/1.1/"
   xmlns:cc="http://creativecommons.org/ns#"
   xmlns:rdf="http://www.w3.org/1999/02/22-rdf-syntax-ns#"
   xmlns:svg="http://www.w3.org/2000/svg"
   xmlns="http://www.w3.org/2000/svg"
   xmlns:sodipodi="http://sodipodi.sourceforge.net/DTD/sodipodi-0.dtd"
   xmlns:inkscape="http://www.inkscape.org/namespaces/inkscape"
   inkscape:version="1.0 (4035a4fb49, 2020-05-01)"
   sodipodi:docname="logo-tree.svg"
   id="svg37"
   version="1.1"
   viewBox="0 0 31 51"
   style="clip-rule:evenodd;fill-rule:evenodd;image-rendering:optimizeQuality;shape-rendering:geometricPrecision;text-rendering:geometricPrecision"
   height="51mm"
   width="31mm"
   xml:space="preserve"><metadata
   id="metadata41"><rdf:RDF><cc:Work
       rdf:about=""><dc:format>image/svg+xml</dc:format><dc:type
         rdf:resource="http://purl.org/dc/dcmitype/StillImage" /><dc:title></dc:title></cc:Work></rdf:RDF></metadata><sodipodi:namedview
   inkscape:current-layer="svg37"
   inkscape:window-maximized="1"
   inkscape:window-y="-8"
   inkscape:window-x="-8"
   inkscape:cy="111.66134"
   inkscape:cx="94.548497"
   inkscape:zoom="3.1343649"
   showgrid="false"
   id="namedview39"
   inkscape:window-height="1027"
   inkscape:window-width="1920"
   inkscape:pageshadow="2"
   inkscape:pageopacity="0"
   guidetolerance="10"
   gridtolerance="10"
   objecttolerance="10"
   borderopacity="1"
   bordercolor="#666666"
   pagecolor="#ffffff"
   inkscape:document-rotation="0" />
 <defs
   id="defs4">
  <style
   id="style2"
   type="text/css">
   <![CDATA[
    .str0 {stroke:#1F1A17;stroke-width:1.5}
    .fil1 {fill:none}
    .fil0 {fill:#1F1A17}
    .fil2 {fill:#84C225}
    .fil3 {fill:#1F1A17;fill-rule:nonzero}
    .fil4 {fill:#84C225;fill-rule:nonzero}
   ]]>
  </style>
 
  
  
  
  
  
  
  
  
  
  
  
  
  
  
  
  
  
  
 </defs>
 <path
   class="fil0"
   d="m 10.073007,47.695206 7.4104,2.9356 -2.0011,-4.1272 c 0,0 -0.7524,-1.4108 -1.4578,-4.6321 -0.7054,-3.2213 -0.6584,-6.6778 -0.5643,-7.3596 0.094,-0.6819 0.1646,-0.9876 0.1646,-0.9876 0.4661,-1.7822 0.6557,-3.6632 0.7054,-5.5021 0,0 0.8376,-0.2131 1.4724,-0.9419 0.6347,-0.7288 1.7959,-3.5256 2.3602,-5.6418 0.5644,-2.1162 1.0722,-4.2674 2.5297,-5.5722 1.4576,-1.3048 4.3963,-2.0335 4.3963,-2.0335 0,0 -1.2107,0.3526 -1.6104,0.2468 -0.3997,-0.1058 0.2233,-0.764 0.2233,-0.764 0,0 -0.6817,0.6582 -1.1049,0.8345 -0.4232,0.1764 -1.7515,1.1637 -2.1746,1.5281 -0.4232,0.3644 -1.2225,1.1638 -1.2225,1.1638 0,0 0.1293,-4.89 -0.0353,-4.9605 -0.1645,-0.0705 -0.3526,4.7254 -0.3526,4.7254 0,0 -1.3283,-1.8573 -1.4811,-1.869 -0.1528,-0.0118 0.67,1.1754 0.7405,1.8102 0.0706,0.6347 0.2797,2.0923 0.0446,2.9388 -0.2351,0.8464 -0.2586,1.7635 -1.2932,3.668 -1.0346,1.9046 -2.3278,3.6681 -2.3278,3.6681 0,0 -0.0706,-2.3043 -0.5173,-4.1148 -0.4468,-1.8105 -1.1757,-4.3029 -1.5519,-5.2905 -0.3762,-0.9876 -0.6584,-1.5049 -0.823,-4.2324 -0.1646,-2.7275 -0.094,-4.9142996 -0.094,-4.9142996 0,0 1.2025,-0.8798 1.896,-1.9025 0.6936,-1.0226 1.3518,-1.7161 1.3048,-1.9395 -0.047,-0.2233 -1.7749,2.0101 -2.4332,2.6096 -0.6583,0.5994 -0.9992,0.9051 -0.9992,0.9051 0,0 0.0471,-2.0571 0.1293,-2.1864 0.0823,-0.1293 1.822,-2.1158 1.775,-2.3744 -0.047,-0.2586 -1.5516,1.5516 -1.5516,1.5516 0,0 0.2351,-1.4694 0.8228,-2.5861 0.5877,-1.1166 1.2343,-2.03349995 1.2343,-2.03349995 0,0 -0.3644,0.1998 -0.8581,0.84629995 -0.4937,0.6465 -1.1755,2.0688 -1.5164,3.3971 -0.3409,1.3283 -0.4819,3.209 -0.5407,4.5373 -0.0588,1.3282996 0.1021,4.6304996 0.1962,5.8296996 0.094,1.1992 0.5408,3.8091 0.5408,3.8091 0,0 -2.7981002,-4.5615 -3.3154002,-5.408 -0.5173,-0.8465 -0.8187,-1.6918 -0.7717,-2.4676 0.047,-0.7758 0.1881,-1.8924996 0.1881,-1.8924996 0,0 -0.1998,0.1528 -0.3291,0.6583 -0.1293,0.5053996 -0.2586,2.0687996 -0.2586,2.0687996 0,0 -0.7994,-0.7288 -1.2343,-1.6339 -0.4349,-0.9050996 -0.7405,-1.7278996 -0.7758,-2.2098996 -0.0353,-0.4819 -0.0235,-1.4693 -0.047,-1.5751 -0.0235,-0.1058 -0.0353,1.822 -0.1528,1.8102 -0.1176,-0.0117 -0.5995,-0.623 -0.576,-0.4584 0.0235,0.1646 1.293,2.5036996 1.293,2.5036996 0,0 -0.0235,0.1411 -0.1998,0.0118 -0.1763,-0.1293 -1.105,-0.8933996 -1.822,-1.5045996 -0.717,-0.6112 -0.7758,-0.6348 -0.7053,-0.5055 0.0706,0.1293 1.5399,1.4811 1.5046,1.5869 -0.0352,0.1058 -2.5272,-0.9404 -2.5625,-0.811 -0.0353,0.1293 2.4332,1.1048996 2.3862,1.1988996 -0.047,0.0941 -1.1167,0.2116 -1.0579,0.2821 0.0588,0.0706 1.2695,-0.1293 1.5281,-0.0587 0.2586,0.0705 0.8581,0.5172 1.6809,1.4105 0.8228,0.8934 1.8925,2.2099 2.3745,3.2443 0.4819,1.0344 1.2577,2.9152 1.2577,2.9152 0,0 -0.8111,-0.6348 -3.8203,-1.2813 -3.0092,-0.6465 -5.65399999,-0.1528 -5.66569999,-0.0823 -0.0118,0.0706 2.13929999,-0.0117 2.84459999,0.0353 0.7053,0.047 0.8464,0.1528 0.8464,0.1528 0,0 -0.576,0.7993 -0.482,0.7993 0.094,0 0.6583,-0.764 0.8346,-0.7993 0.1763,-0.0353 1.1376,0.0536 1.5488,0.1476 0.4113,0.094 0.5406,0.1821 0.5406,0.1821 0,0 -0.6052,0.6228 -0.8813,0.9812 -0.2762,0.3584 -0.5229,0.7932 -0.4759,0.8696 0.047,0.0763 0.8871,-0.9283 1.2632,-1.2574 0.376,-0.329 0.705,-0.4641 0.705,-0.4641 0,0 1.4395,0.5111 2.4442,1.3513 1.0046002,0.8402 1.4615002,1.3752 2.0493002,2.5742 0.5877,1.199 0.8698,2.2334 0.9873,3.209 0.1176,0.9757 0.1764,3.021 0.0471,3.9849 -0.1293,0.9638 -0.556,2.8702 -1.0027,4.2575 -0.4468,1.3872 -0.8465,3.9267 -0.9876,5.6196 -0.1411,1.693 -0.2821,3.0097 -0.3762,5.0084 -0.094,1.9986 -0.2599,4.5069 -0.2599,4.5069 z"
   id="path7" /><path
   class="fil2"
   d="m 19.900307,8.0152064 c 0,0 0.9704,0.1436 1.567,0.5707 0.5966,0.4271 1.1136,1.0697 1.371,1.6394996 0.2573,0.5698 0.4676,1.7114 0.4307,2.3493 -0.0369,0.6379 -0.1586,1.3114 -0.1586,1.3114 0,0 -0.6853,-0.0521 -1.3812,-0.4639 -0.6958,-0.4117 -1.218,-1.2342 -1.4576,-1.9083 -0.2397,-0.6742 -0.3988,-1.485 -0.4271,-1.8869996 -0.0282,-0.402 0.0558,-1.6117 0.0558,-1.6117 z"
   id="path11" /><path
   class="fil2"
   d="m 30.404307,7.2662064 c 0,0 -1.4251,-0.2389 -2.4549,0.089 -1.0297,0.328 -2.0456,0.9941 -2.6648,1.6759 -0.6191,0.6818 -1.4315,2.1861996 -1.6691,3.0967996 -0.2376,0.9107 -0.3726,1.9098 -0.3726,1.9098 0,0 0.9842,0.2378 2.146,-0.0237 1.1619,-0.2615 2.2667,-1.1771 2.9083,-2.0132 0.6416,-0.8361 1.2323,-1.9002 1.4543,-2.4506996 0.2219,-0.5506 0.6528,-2.2839 0.6528,-2.2839 z"
   id="path13" /><path
   class="fil2"
   d="m 27.292307,16.470206 c 0,0 -0.0725,-0.6309 -0.3364,-1.0259 -0.2638,-0.395 -0.6688,-0.743 -1.0321,-0.9215 -0.3633,-0.1785 -1.0976,-0.3385 -1.5111,-0.3281 -0.4136,0.0105 -0.852,0.0752 -0.852,0.0752 0,0 0.0194,0.4446 0.2712,0.9034 0.2519,0.4589 0.7731,0.8141 1.2043,0.9833 0.4312,0.1692 0.9525,0.2892 1.2121,0.3159 0.2595,0.0267 1.044,-0.002 1.044,-0.002 z"
   id="path15" />
</svg>
