<?xml version="1.0" encoding="UTF-8" standalone="no"?>
<svg
   xmlns:dc="http://purl.org/dc/elements/1.1/"
   xmlns:cc="http://creativecommons.org/ns#"
   xmlns:rdf="http://www.w3.org/1999/02/22-rdf-syntax-ns#"
   xmlns:svg="http://www.w3.org/2000/svg"
   xmlns="http://www.w3.org/2000/svg"
   xmlns:sodipodi="http://sodipodi.sourceforge.net/DTD/sodipodi-0.dtd"
   xmlns:inkscape="http://www.inkscape.org/namespaces/inkscape"
   inkscape:version="1.0 (4035a4fb49, 2020-05-01)"
   sodipodi:docname="logo samo.svg"
   id="svg37"
   version="1.1"
   viewBox="0 0 55 55"
   style="clip-rule:evenodd;fill-rule:evenodd;image-rendering:optimizeQuality;shape-rendering:geometricPrecision;text-rendering:geometricPrecision"
   height="55mm"
   width="55mm"
   xml:space="preserve"><metadata
   id="metadata41"><rdf:RDF><cc:Work
       rdf:about=""><dc:format>image/svg+xml</dc:format><dc:type
         rdf:resource="http://purl.org/dc/dcmitype/StillImage" /><dc:title></dc:title></cc:Work></rdf:RDF></metadata><sodipodi:namedview
   inkscape:current-layer="svg37"
   inkscape:window-maximized="0"
   inkscape:window-y="0"
   inkscape:window-x="1262"
   inkscape:cy="158.73443"
   inkscape:cx="134.12644"
   inkscape:zoom="5.1704505"
   showgrid="false"
   id="namedview39"
   inkscape:window-height="2075"
   inkscape:window-width="2560"
   inkscape:pageshadow="2"
   inkscape:pageopacity="0"
   guidetolerance="10"
   gridtolerance="10"
   objecttolerance="10"
   borderopacity="1"
   bordercolor="#666666"
   pagecolor="#ffffff" />
 <defs
   id="defs4">
  <style
   id="style2"
   type="text/css">
   <![CDATA[
    .str0 {stroke:#1F1A17;stroke-width:1.5}
    .fil1 {fill:none}
    .fil0 {fill:#1F1A17}
    .fil2 {fill:#84C225}
    .fil3 {fill:#1F1A17;fill-rule:nonzero}
    .fil4 {fill:#84C225;fill-rule:nonzero}
   ]]>
  </style>
 </defs>
 <g
   transform="translate(-81.05263,-90.026314)"
   id="Warstwa_x0020_1">
  <metadata
   id="CorelCorpID_0Corel-Layer" />
  <path
   id="path7"
   d="m 96.4437,140.676 7.4104,2.9356 -2.0011,-4.1272 c 0,0 -0.7524,-1.4108 -1.4578,-4.6321 -0.7054,-3.2213 -0.6584,-6.6778 -0.5643,-7.3596 0.094,-0.6819 0.1646,-0.9876 0.1646,-0.9876 0.4661,-1.7822 0.6557,-3.6632 0.7054,-5.5021 0,0 0.8376,-0.2131 1.4724,-0.9419 0.6347,-0.7288 1.7959,-3.5256 2.3602,-5.6418 0.5644,-2.1162 1.0722,-4.2674 2.5297,-5.5722 1.4576,-1.3048 4.3963,-2.0335 4.3963,-2.0335 0,0 -1.2107,0.3526 -1.6104,0.2468 -0.3997,-0.1058 0.2233,-0.764 0.2233,-0.764 0,0 -0.6817,0.6582 -1.1049,0.8345 -0.4232,0.1764 -1.7515,1.1637 -2.1746,1.5281 -0.4232,0.3644 -1.2225,1.1638 -1.2225,1.1638 0,0 0.1293,-4.89 -0.0353,-4.9605 -0.1645,-0.0705 -0.3526,4.7254 -0.3526,4.7254 0,0 -1.3283,-1.8573 -1.4811,-1.869 -0.1528,-0.0118 0.67,1.1754 0.7405,1.8102 0.0706,0.6347 0.2797,2.0923 0.0446,2.9388 -0.2351,0.8464 -0.2586,1.7635 -1.2932,3.668 -1.0346,1.9046 -2.3278,3.6681 -2.3278,3.6681 0,0 -0.0706,-2.3043 -0.5173,-4.1148 -0.4468,-1.8105 -1.1757,-4.3029 -1.5519,-5.2905 -0.3762,-0.9876 -0.6584,-1.5049 -0.823,-4.2324 -0.1646,-2.7275 -0.094,-4.9143 -0.094,-4.9143 0,0 1.2025,-0.8798 1.896,-1.9025 0.6936,-1.0226 1.3518,-1.7161 1.3048,-1.9395 -0.047,-0.2233 -1.7749,2.0101 -2.4332,2.6096 -0.6583,0.5994 -0.9992,0.9051 -0.9992,0.9051 0,0 0.0471,-2.0571 0.1293,-2.1864 0.0823,-0.1293 1.822,-2.1158 1.775,-2.3744 -0.047,-0.2586 -1.5516,1.5516 -1.5516,1.5516 0,0 0.2351,-1.4694 0.8228,-2.5861 0.5877,-1.1166 1.2343,-2.0335 1.2343,-2.0335 0,0 -0.3644,0.1998 -0.8581,0.8463 -0.4937,0.6465 -1.1755,2.0688 -1.5164,3.3971 -0.3409,1.3283 -0.4819,3.209 -0.5407,4.5373 -0.0588,1.3283 0.1021,4.6305 0.1962,5.8297 0.094,1.1992 0.5408,3.8091 0.5408,3.8091 0,0 -2.7981,-4.5615 -3.3154,-5.408 -0.5173,-0.8465 -0.8187,-1.6918 -0.7717,-2.4676 0.047,-0.7758 0.1881,-1.8925 0.1881,-1.8925 0,0 -0.1998,0.1528 -0.3291,0.6583 -0.1293,0.5054 -0.2586,2.0688 -0.2586,2.0688 0,0 -0.7994,-0.7288 -1.2343,-1.6339 -0.4349,-0.9051 -0.7405,-1.7279 -0.7758,-2.2099 -0.0353,-0.4819 -0.0235,-1.4693 -0.047,-1.5751 -0.0235,-0.1058 -0.0353,1.822 -0.1528,1.8102 -0.1176,-0.0117 -0.5995,-0.623 -0.576,-0.4584 0.0235,0.1646 1.293,2.5037 1.293,2.5037 0,0 -0.0235,0.1411 -0.1998,0.0118 -0.1763,-0.1293 -1.105,-0.8934 -1.822,-1.5046 -0.717,-0.6112 -0.7758,-0.6348 -0.7053,-0.5055 0.0706,0.1293 1.5399,1.4811 1.5046,1.5869 -0.0352,0.1058 -2.5272,-0.9404 -2.5625,-0.811 -0.0353,0.1293 2.4332,1.1049 2.3862,1.1989 -0.047,0.0941 -1.1167,0.2116 -1.0579,0.2821 0.0588,0.0706 1.2695,-0.1293 1.5281,-0.0587 0.2586,0.0705 0.8581,0.5172 1.6809,1.4105 0.8228,0.8934 1.8925,2.2099 2.3745,3.2443 0.4819,1.0344 1.2577,2.9152 1.2577,2.9152 0,0 -0.8111,-0.6348 -3.8203,-1.2813 -3.0092,-0.6465 -5.654,-0.1528 -5.6657,-0.0823 -0.0118,0.0706 2.1393,-0.0117 2.8446,0.0353 0.7053,0.047 0.8464,0.1528 0.8464,0.1528 0,0 -0.576,0.7993 -0.482,0.7993 0.094,0 0.6583,-0.764 0.8346,-0.7993 0.1763,-0.0353 1.1376,0.0536 1.5488,0.1476 0.4113,0.094 0.5406,0.1821 0.5406,0.1821 0,0 -0.6052,0.6228 -0.8813,0.9812 -0.2762,0.3584 -0.5229,0.7932 -0.4759,0.8696 0.047,0.0763 0.8871,-0.9283 1.2632,-1.2574 0.376,-0.329 0.705,-0.4641 0.705,-0.4641 0,0 1.4395,0.5111 2.4442,1.3513 1.0046,0.8402 1.4615,1.3752 2.0493,2.5742 0.5877,1.199 0.8698,2.2334 0.9873,3.209 0.1176,0.9757 0.1764,3.021 0.0471,3.9849 -0.1293,0.9638 -0.556,2.8702 -1.0027,4.2575 -0.4468,1.3872 -0.8465,3.9267 -0.9876,5.6196 -0.1411,1.693 -0.2821,3.0097 -0.3762,5.0084 -0.094,1.9986 -0.2599,4.5069 -0.2599,4.5069 z"
   class="fil0" />
  <circle
   id="circle9"
   r="26.176001"
   cy="117.658"
   cx="108.644"
   class="fil1 str0" />
  <path
   id="path11"
   d="m 106.271,100.996 c 0,0 0.9704,0.1436 1.567,0.5707 0.5966,0.4271 1.1136,1.0697 1.371,1.6395 0.2573,0.5698 0.4676,1.7114 0.4307,2.3493 -0.0369,0.6379 -0.1586,1.3114 -0.1586,1.3114 0,0 -0.6853,-0.0521 -1.3812,-0.4639 -0.6958,-0.4117 -1.218,-1.2342 -1.4576,-1.9083 -0.2397,-0.6742 -0.3988,-1.485 -0.4271,-1.887 -0.0282,-0.402 0.0558,-1.6117 0.0558,-1.6117 z"
   class="fil2" />
  <path
   id="path13"
   d="m 116.775,100.247 c 0,0 -1.4251,-0.2389 -2.4549,0.089 -1.0297,0.328 -2.0456,0.9941 -2.6648,1.6759 -0.6191,0.6818 -1.4315,2.1862 -1.6691,3.0968 -0.2376,0.9107 -0.3726,1.9098 -0.3726,1.9098 0,0 0.9842,0.2378 2.146,-0.0237 1.1619,-0.2615 2.2667,-1.1771 2.9083,-2.0132 0.6416,-0.8361 1.2323,-1.9002 1.4543,-2.4507 0.2219,-0.5506 0.6528,-2.2839 0.6528,-2.2839 z"
   class="fil2" />
  <path
   id="path15"
   d="m 113.663,109.451 c 0,0 -0.0725,-0.6309 -0.3364,-1.0259 -0.2638,-0.395 -0.6688,-0.743 -1.0321,-0.9215 -0.3633,-0.1785 -1.0976,-0.3385 -1.5111,-0.3281 -0.4136,0.0105 -0.852,0.0752 -0.852,0.0752 0,0 0.0194,0.4446 0.2712,0.9034 0.2519,0.4589 0.7731,0.8141 1.2043,0.9833 0.4312,0.1692 0.9525,0.2892 1.2121,0.3159 0.2595,0.0267 1.044,-0.002 1.044,-0.002 z"
   class="fil2" />
  <polygon
   id="polygon17"
   points="111.109,112.612 109.495,112.449 109.464,113.712 110.52,113.712 110.52,114.383 109.446,114.383 109.338,118.432 108.324,118.432 108.03,111.75 111.109,111.75 "
   class="fil3" />
  <polygon
   points="112.576,118.432 111.562,118.432 111.268,111.75 112.756,111.75 "
   class="fil3"
   id="1" />
  <path
   d="m 114.763,118.432 h -1.0142 l -0.2986,-6.6823 h 1.4882 l -0.0138,0.4202 c 0.1785,-0.1924 0.3693,-0.3371 0.5756,-0.4309 0.2062,-0.0955 0.4093,-0.1416 0.6109,-0.1416 0.3402,0 0.6079,0.0862 0.8065,0.2616 0.2985,0.2601 0.4463,0.6418 0.4463,1.145 0,0.5017 -0.1416,1.025 -0.4232,1.5682 -0.1863,0.3648 -0.4325,0.7064 -0.7403,1.0281 -0.3063,0.3216 -0.6679,0.5956 -1.0865,0.8202 0.2262,0.3494 0.4232,0.5464 0.5909,0.591 0.1693,0.0446 0.2801,0.0677 0.334,0.0677 0.2339,0 0.4786,-0.1462 0.731,-0.437 0.0801,0.1262 0.1739,0.2739 0.2786,0.4417 0.1062,0.1677 0.2001,0.3154 0.2847,0.4416 -0.1416,0.1863 -0.3124,0.3371 -0.5125,0.451 -0.2001,0.1138 -0.4201,0.1708 -0.6602,0.1708 -0.2678,0 -0.5233,-0.1077 -0.7664,-0.3247 -0.2278,-0.2001 -0.4263,-0.4602 -0.5956,-0.7788 z m 0.0677,-2.6193 c 0.3632,-0.2463 0.6572,-0.5649 0.8818,-0.9542 0.2232,-0.3894 0.3756,-0.7572 0.4571,-1.105 0.0816,-0.3463 0.1216,-0.6356 0.1216,-0.868 0,-0.4201 -0.0939,-0.631 -0.2801,-0.631 -0.2401,0 -0.4709,0.1462 -0.6941,0.4371 -0.1585,0.2108 -0.2785,0.4894 -0.3601,0.8341 -0.0308,0.1355 -0.0508,0.2832 -0.0631,0.4402 -0.0123,0.1585 -0.0339,0.7741 -0.0631,1.8468 z"
   class="fil3"
   id="12" />
  <polygon
   points="121.684,118.432 120.696,118.432 120.85,113.203 120.317,114.365 119.92,114.365 119.312,113.035 119.172,118.432 118.158,118.432 117.859,111.75 119.348,111.75 120.119,113.441 120.89,111.75 121.567,111.75 "
   class="fil3"
   id="123" />
  <path
   d="m 125.462,118.432 h -1.0157 l -0.2109,-1.1542 h -1.0095 l -0.1909,1.1542 h -0.9865 l 1.3882,-6.6823 h 1.4882 z m -1.3435,-1.7945 -0.4202,-2.3084 -0.3739,2.3084 z"
   class="fil3"
   id="1234" />
  <polygon
   id="polygon23"
   points="117.197,124.135 114.97,124.135 116.22,120.155 115.018,120.366 115.018,119.68 117.525,119.68 115.845,123.66 117.197,123.447 "
   class="fil4" />
  <path
   id="path25"
   d="m 104.559,132.013 h -1.0142 l -0.2986,-6.6823 h 1.4882 l -0.0138,0.5725 c 0.1785,-0.1923 0.3693,-0.3355 0.5756,-0.4309 0.2062,-0.0939 0.4093,-0.1416 0.6109,-0.1416 0.3001,0 0.5464,0.0985 0.7372,0.2955 0.1908,0.197 0.3232,0.4448 0.3986,0.7433 0.0754,0.3001 0.1124,0.6079 0.1124,0.9234 0,0.4833 -0.0724,0.9881 -0.2155,1.5144 -0.2678,0.9465 -0.7033,1.7267 -1.3081,2.3393 -0.3125,0.3201 -0.668,0.5678 -1.0681,0.7448 z m 0.0231,-0.888 c 0.5586,-0.4248 0.9742,-1.185 1.2481,-2.2823 0.1677,-0.6849 0.2524,-1.3158 0.2524,-1.893 0,-0.2046 -0.0123,-0.3847 -0.0354,-0.5417 -0.0431,-0.2816 -0.1416,-0.4232 -0.2986,-0.4232 -0.2047,0 -0.4155,0.1462 -0.6356,0.4371 -0.177,0.2354 -0.3062,0.554 -0.3878,0.9557 -0.0354,0.1831 -0.0554,0.337 -0.0585,0.4601 z"
   class="fil3" />
  <path
   d="m 108.982,132.013 h -1.0142 l -0.2986,-6.6823 h 1.4882 l -0.0138,0.4202 c 0.1785,-0.1924 0.3693,-0.3371 0.5756,-0.4309 0.2062,-0.0955 0.4093,-0.1416 0.6109,-0.1416 0.3402,0 0.6079,0.0862 0.8065,0.2616 0.2985,0.2601 0.4463,0.6418 0.4463,1.145 0,0.5017 -0.1416,1.025 -0.4232,1.5682 -0.1863,0.3648 -0.4325,0.7064 -0.7403,1.0281 -0.3063,0.3216 -0.6679,0.5956 -1.0865,0.8202 0.2262,0.3494 0.4232,0.5464 0.5909,0.591 0.1693,0.0446 0.2801,0.0677 0.334,0.0677 0.2339,0 0.4786,-0.1462 0.731,-0.437 0.0801,0.1262 0.1739,0.2739 0.2786,0.4417 0.1062,0.1677 0.2001,0.3154 0.2847,0.4416 -0.1416,0.1863 -0.3124,0.3371 -0.5125,0.451 -0.2001,0.1138 -0.4201,0.1708 -0.6602,0.1708 -0.2678,0 -0.5233,-0.1077 -0.7664,-0.3247 -0.2278,-0.2001 -0.4263,-0.4602 -0.5956,-0.7788 z m 0.0677,-2.6193 c 0.3632,-0.2463 0.6572,-0.5649 0.8818,-0.9542 0.2232,-0.3894 0.3756,-0.7572 0.4571,-1.105 0.0816,-0.3463 0.1216,-0.6356 0.1216,-0.868 0,-0.4201 -0.0939,-0.631 -0.2801,-0.631 -0.2401,0 -0.4709,0.1462 -0.6941,0.4371 -0.1585,0.2108 -0.2785,0.4894 -0.3601,0.8341 -0.0308,0.1355 -0.0508,0.2832 -0.0631,0.4402 -0.0123,0.1585 -0.0339,0.7741 -0.0631,1.8468 z"
   class="fil3"
   id="path27" />
  <polygon
   points="114.569,127.964 113.495,127.964 113.405,131.323 115.158,131.146 115.158,132.013 112.373,132.013 112.079,125.331 115.158,125.331 115.158,126.192 113.544,126.029 113.513,127.293 114.569,127.293 "
   class="fil3"
   id="polygon29" />
  <polygon
   points="120.985,132.013 119.492,132.013 118.873,127.576 118.158,132.013 116.471,132.013 115.326,125.331 116.945,125.331 117.394,130.926 118.558,125.331 120.046,125.331 120.38,130.178 121.385,125.331 122.062,125.331 "
   class="fil3"
   id="polygon31" />
  <polygon
   points="122.716,132.013 122.418,125.331 123.906,125.331 125.001,127.716 125.069,125.331 125.745,125.331 125.863,132.013 124.875,132.013 124.962,128.992 123.875,126.611 123.73,132.013 "
   class="fil3"
   id="polygon33" />
  <path
   d="m 129.632,132.013 h -1.0157 l -0.2109,-1.1542 h -1.0095 l -0.1909,1.1542 h -0.9865 l 1.3882,-6.6823 h 1.4882 z m -1.3435,-1.7945 -0.4202,-2.3084 -0.3739,2.3084 z"
   class="fil3"
   id="12345" />
 </g>
</svg>
